
<svg width="21px" height="16px" viewBox="0 0 21 16" version="1.1" xmlns="http://www.w3.org/2000/svg" xmlns:xlink="http://www.w3.org/1999/xlink">
    <g id="Phone" stroke="none" stroke-width="1" fill="none" fill-rule="evenodd">
        <g id="mobile_search" transform="translate(-121.000000, -215.000000)">
            <g id="cards" transform="translate(15.000000, 83.000000)">
                <g id="card_girl_1">
                    <g id="buttons" transform="translate(0.000000, 120.000000)">
                        <g id="mess" transform="translate(107.000000, 13.000000)">
                            <path d="M1.17315385,12.0192308 L1.17315385,2.55769231 C1.17315385,2.40384615 1.17315385,2.32692308 1.25007692,2.17307692 L6.78853846,7.01923077 L1.25007692,12.25 C1.17315385,12.25 1.17315385,12.1730769 1.17315385,12.0192308 Z M7.55776923,7.86538462 L9.25007692,9.40384615 C9.40392308,9.55769231 9.63469231,9.55769231 9.71161538,9.55769231 C9.78853846,9.55769231 9.94238462,9.55769231 10.0962308,9.40384615 L11.7116154,7.94230769 L17.4808462,13.25 C17.327,13.3269231 17.2500769,13.3269231 17.0962308,13.3269231 L2.327,13.25 C2.17315385,13.25 2.09623077,13.25 1.94238462,13.1730769 L7.55776923,7.86538462 Z M18.2500769,2.63461538 L18.2500769,12.0192308 C18.2500769,12.1730769 18.1731538,12.25 18.1731538,12.4038462 L12.4808462,7.17307692 L18.1731538,2.17307692 C18.1731538,2.25 18.2500769,2.48076923 18.2500769,2.63461538 Z M2.327,1.32692308 L17.0962308,1.32692308 L17.2500769,1.32692308 L9.71161538,8.17307692 L2.01930769,1.40384615 C2.09623077,1.32692308 2.17315385,1.32692308 2.327,1.32692308 Z M18.6346923,0.788461538 C18.1731538,0.326923077 17.5577692,0.0961538462 17.0193077,0.0961538462 L2.25007692,0.0961538462 C1.55776923,0.173076923 1.01930769,0.480769231 0.711615385,0.942307692 C0.327,1.32692308 0.0962307692,1.86538462 0.0962307692,2.55769231 L0.0962307692,11.9423077 C0.0962307692,13.3269231 1.09623077,14.4038462 2.327,14.4038462 L17.0962308,14.4038462 C18.327,14.4038462 19.327,13.3269231 19.327,11.9423077 L19.327,2.55769231 C19.327,1.94230769 19.1731538,1.32692308 18.6346923,0.788461538 Z" id="Fill-1" fill="#FFFFFF"></path>
                            <path d="M1.17315385,12.0192308 L1.17315385,2.55769231 C1.17315385,2.40384615 1.17315385,2.32692308 1.25007692,2.17307692 L6.78853846,7.01923077 L1.25007692,12.25 C1.17315385,12.25 1.17315385,12.1730769 1.17315385,12.0192308 Z M7.55776923,7.86538462 L9.25007692,9.40384615 C9.40392308,9.55769231 9.63469231,9.55769231 9.71161538,9.55769231 C9.78853846,9.55769231 9.94238462,9.55769231 10.0962308,9.40384615 L11.7116154,7.94230769 L17.4808462,13.25 C17.327,13.3269231 17.2500769,13.3269231 17.0962308,13.3269231 L2.327,13.25 C2.17315385,13.25 2.09623077,13.25 1.94238462,13.1730769 L7.55776923,7.86538462 Z M18.2500769,2.63461538 L18.2500769,12.0192308 C18.2500769,12.1730769 18.1731538,12.25 18.1731538,12.4038462 L12.4808462,7.17307692 L18.1731538,2.17307692 C18.1731538,2.25 18.2500769,2.48076923 18.2500769,2.63461538 Z M2.327,1.32692308 L17.0962308,1.32692308 L17.2500769,1.32692308 L9.71161538,8.17307692 L2.01930769,1.40384615 C2.09623077,1.32692308 2.17315385,1.32692308 2.327,1.32692308 Z M18.6346923,0.788461538 C18.1731538,0.326923077 17.5577692,0.0961538462 17.0193077,0.0961538462 L2.25007692,0.0961538462 C1.55776923,0.173076923 1.01930769,0.480769231 0.711615385,0.942307692 C0.327,1.32692308 0.0962307692,1.86538462 0.0962307692,2.55769231 L0.0962307692,11.9423077 C0.0962307692,13.3269231 1.09623077,14.4038462 2.327,14.4038462 L17.0962308,14.4038462 C18.327,14.4038462 19.327,13.3269231 19.327,11.9423077 L19.327,2.55769231 C19.327,1.94230769 19.1731538,1.32692308 18.6346923,0.788461538 Z" id="Stroke-3" stroke="#FFFFFF" stroke-width="0.25"></path>
                        </g>
                    </g>
                </g>
            </g>
        </g>
    </g>
</svg>