<svg width="15px" height="12px" viewBox="0 0 15 12" version="1.1" xmlns="http://www.w3.org/2000/svg" xmlns:xlink="http://www.w3.org/1999/xlink">
    <g id="Phone" stroke="none" stroke-width="1" fill="none" fill-rule="evenodd">
        <g id="mobile_search" transform="translate(-183.000000, -98.000000)" fill="#FFFFFF">
            <g id="cards" transform="translate(15.000000, 83.000000)">
                <g id="card_girl_1" transform="translate(150.000000, 0.000000)">
                    <g id="photos" transform="translate(10.000000, 10.000000)">
                        <g id="camera" transform="translate(8.000000, 5.000000)">
                            <path d="M7.30360345,8.76331034 C6.42015517,8.76331034 5.61687931,8.23003448 5.28067241,7.41227586 C4.93722414,6.58675862 5.12756897,5.64537931 5.7555,5.02417241 C6.38343103,4.39675862 7.32532759,4.20641379 8.14360345,4.54986207 C8.96136207,4.8927931 9.49412069,5.68882759 9.49412069,6.58003448 C9.49412069,7.15675862 9.26032759,7.71175862 8.85222414,8.12762069 C8.44308621,8.53727586 7.88756897,8.76331034 7.30360345,8.76331034 Z M3.65291379,6.56503448 C3.64567241,8.5802069 5.28118966,10.2167586 7.29687931,10.2234828 C9.31205172,10.2234828 10.9553276,8.59572414 10.9553276,6.58003448 C10.9553276,4.56434483 9.32756897,2.92158621 7.31136207,2.92158621 C5.29618966,2.91382759 3.66015517,4.54986207 3.65291379,6.56503448 Z M7.28912069,11.6836552 L1.49136207,11.6836552 C0.914637931,11.6836552 0.461534483,11.4498621 0.184293103,10.9465862 C0.074637931,10.7195172 0.00894827586,10.4784828 0.00894827586,10.2229655 C-0.00553448276,8.0402069 0.00170689655,5.84968966 0.00170689655,3.65813793 C0.00170689655,2.81141379 0.593431034,2.21244828 1.44739655,2.1902069 C1.95118966,2.18348276 2.45498276,2.1902069 2.95877586,2.1902069 C3.52825862,2.1902069 3.67463793,2.08106897 3.84946552,1.55503448 C3.96636207,1.19762069 4.08325862,0.839689655 4.20739655,0.482275862 C4.3242931,0.153310345 4.52860345,0.000206896551 4.8792931,0.000206896551 L9.71394828,0.000206896551 C10.0641207,0.000206896551 10.2761897,0.153310345 10.3853276,0.482275862 C10.5167069,0.869172414 10.6413621,1.25555172 10.7727414,1.64296552 C10.9108448,2.04486207 11.1006724,2.19072414 11.5387759,2.19072414 C12.0430862,2.19072414 12.5463621,2.20572414 13.0501552,2.19072414 C13.977569,2.15451724 14.6199828,2.90710345 14.6060172,3.73158621 C14.5687759,5.88641379 14.5765345,8.0402069 14.6060172,10.2012414 C14.6127414,10.9393448 14.0065345,11.6908966 13.1086034,11.6836552 C11.1736034,11.676931 9.23136207,11.6836552 7.28860345,11.6836552 L7.28912069,11.6836552 Z" id="Fill-1"></path>
                        </g>
                    </g>
                </g>
            </g>
        </g>
    </g>
</svg>