
<svg width="18px" height="18px" viewBox="0 0 18 18" version="1.1" xmlns="http://www.w3.org/2000/svg" xmlns:xlink="http://www.w3.org/1999/xlink">
    <defs>
        <polygon id="path-1" points="0 9.0001 0 18 18 18 18 9.0001 18 0.0002 0 0.0002"></polygon>
    </defs>
    <g id="Phone" stroke="none" stroke-width="1" fill="none" fill-rule="evenodd">
        <g id="mobile_search" transform="translate(-29.000000, -214.000000)">
            <g id="cards" transform="translate(15.000000, 83.000000)">
                <g id="card_girl_1">
                    <g id="buttons" transform="translate(0.000000, 120.000000)">
                        <g id="wink" transform="translate(14.000000, 11.000000)">
                            <path d="M13.3584,10.2197 C13.3584,10.2197 13.2804,9.8827 13.0814,9.7617 C13.0364,9.8227 12.9964,9.6197 12.7854,9.8177 C12.7234,9.8837 12.6624,9.9557 12.5954,10.0327 C12.5854,10.0457 12.5714,10.0617 12.5604,10.0737 C12.5244,10.1057 12.4894,10.1347 12.4514,10.1647 C12.3994,10.2117 12.3454,10.2577 12.2914,10.3047 C12.2364,10.3497 12.1744,10.3897 12.1164,10.4337 C11.9964,10.5177 11.8794,10.6077 11.7564,10.6977 C11.4934,10.8487 11.2404,11.0297 10.9524,11.1607 C10.6764,11.3167 10.3764,11.4257 10.0814,11.5517 C9.7764,11.6477 9.4754,11.7597 9.1654,11.8217 C8.8604,11.9067 8.5504,11.9357 8.2524,11.9907 C8.1024,12.0017 7.9534,12.0107 7.8074,12.0247 C7.7344,12.0297 7.6624,12.0387 7.5904,12.0397 C7.5194,12.0397 7.4484,12.0387 7.3794,12.0387 C7.2384,12.0387 7.1014,12.0397 6.9694,12.0407 C6.8374,12.0317 6.7094,12.0217 6.5864,12.0117 C6.3374,12.0017 6.4194,12.0097 6.2174,11.9797 C6.1164,11.9647 5.9984,11.9557 5.9084,11.9477 C5.8214,11.9277 5.7604,11.9207 5.6884,11.9057 C5.3974,11.8387 5.4064,12.4627 5.4064,12.4627 C5.4064,12.4627 5.6074,12.9107 5.8704,13.0687 C5.9374,13.1067 6.0104,13.1497 6.0904,13.1967 C6.1724,13.2367 6.2654,13.2737 6.3634,13.3157 C6.4624,13.3587 6.2604,13.2667 6.3724,13.3147 C6.4834,13.3647 6.6074,13.3877 6.7334,13.4287 C6.8624,13.4647 6.9964,13.5007 7.1344,13.5377 C7.2764,13.5627 7.4234,13.5857 7.5754,13.6107 C7.6504,13.6207 7.7284,13.6327 7.8064,13.6447 C7.8844,13.6537 7.9644,13.6537 8.0454,13.6577 C8.2064,13.6647 8.3714,13.6687 8.5404,13.6747 C8.7084,13.6637 8.8794,13.6507 9.0524,13.6367 C9.2264,13.6297 9.3994,13.5927 9.5734,13.5597 C9.9254,13.5077 10.2664,13.3857 10.6124,13.2807 C10.9424,13.1357 11.2814,13.0057 11.5824,12.8167 C11.7364,12.7287 11.8914,12.6437 12.0284,12.5347 C12.1704,12.4347 12.3084,12.3337 12.4414,12.2317 L12.5214,12.1157 C12.6014,11.9947 12.6794,11.8807 12.7544,11.7707 C12.8234,11.6567 12.9014,11.5597 12.9544,11.4477 C13.0084,11.3377 13.0604,11.2347 13.1084,11.1377 C13.1554,11.0387 13.2014,10.9497 13.2384,10.8657 C13.2684,10.7817 13.2964,10.7017 13.3194,10.6317 C13.4164,10.3457 13.3584,10.2197 13.3584,10.2197" id="Fill-1" fill="#FFFFFF"></path>
                            <path d="M6.4741,5.438 C6.2541,5.298 5.9951,5.216 5.7151,5.216 C4.9311,5.216 4.2941,5.852 4.2941,6.636 C4.2951,7.421 4.9311,8.057 5.7151,8.057 C6.4991,8.057 7.1351,7.421 7.1351,6.636 C7.1351,6.357 7.0541,6.097 6.9141,5.877" id="Fill-3" fill="#FFFFFF"></path>
                            <path d="M12.7607,5.4238 C12.5407,5.2848 12.2817,5.2028 12.0017,5.2028 C11.2177,5.2028 10.5807,5.8388 10.5807,6.6228 C10.5807,7.4068 11.2177,8.0438 12.0017,8.0438 C12.7857,8.0438 13.4217,7.4068 13.4217,6.6228 C13.4217,6.3438 13.3397,6.0828 13.2007,5.8638" id="Fill-5" fill="#FFFFFF"></path>
                            <g id="Group-9">
                                <mask id="mask-2" fill="white">
                                    <use xlink:href="#path-1"></use>
                                </mask>
                                <g id="Clip-8"></g>
                                <path d="M9,16.2002 C5.031,16.2002 1.8,12.9692 1.8,9.0002 C1.8,5.0312 5.031,1.8002 9,1.8002 C12.969,1.8002 16.2,5.0312 16.2,9.0002 C16.2,12.9692 12.969,16.2002 9,16.2002 M9,0.0002 C4.032,0.0002 0,4.0322 0,9.0002 C0,13.9682 4.032,18.0002 9,18.0002 C13.968,18.0002 18,13.9682 18,9.0002 C18,4.0322 13.968,0.0002 9,0.0002" id="Fill-7" fill="#FFFFFF" mask="url(#mask-2)"></path>
                            </g>
                        </g>
                    </g>
                </g>
            </g>
        </g>
    </g>
</svg>